<?xml version="1.0" encoding="UTF-8" standalone="no"?>
<!-- Created with Inkscape (http://www.inkscape.org/) -->

<svg
   width="13.431641"
   height="15.177735"
   viewBox="0 0 3.5537882 4.0157758"
   version="1.1"
   id="svg1"
   xmlns="http://www.w3.org/2000/svg"
   xmlns:svg="http://www.w3.org/2000/svg">
  <defs
     id="defs1" />
  <g
     id="layer1"
     transform="translate(63.382133,-34.820167)">
    <g
       id="g198"
       transform="translate(5.9634512,-9.3076611)">
      <g
         id="g197"
         transform="matrix(0.7720481,0,0,1,-126.94906,31.829122)">
        <g
           id="g195"
           transform="matrix(-1,0,0,1,129.09921,-0.093545)">
          <path
             id="path194"
             style="font-size:5.77018px;line-height:0.7;font-family:'Major Mono Display';-inkscape-font-specification:'Major Mono Display, Normal';font-variant-ligatures:none;text-align:center;text-anchor:middle;stroke-width:0.255963"
             d="m 54.421727,12.392252 v 0.148697 h -4.536835 v -0.148697 z" />
          <path
             id="path195"
             style="font-size:5.77018px;line-height:0.7;font-family:'Major Mono Display';-inkscape-font-specification:'Major Mono Display, Normal';font-variant-ligatures:none;text-align:center;text-anchor:middle;stroke-width:0.258817"
             d="m 54.487958,16.253485 v 0.154542 h -4.603066 v -0.154542 z" />
        </g>
        <g
           id="g196"
           transform="matrix(-1,0,0,1,127.51171,-0.093545)" />
      </g>
      <path
         style="baseline-shift:baseline;display:inline;overflow:visible;vector-effect:none;fill-opacity:1;stroke:none;enable-background:accumulate;stop-color:#000000"
         d="m -67.568661,44.567381 c -0.864638,-1.16e-4 -1.568177,0.703721 -1.568359,1.568359 -1.16e-4,0.864849 0.703511,1.568475 1.568359,1.56836 0.864848,1.15e-4 1.568475,-0.703511 1.568359,-1.56836 -1.82e-4,-0.864638 -0.703721,-1.568475 -1.568359,-1.568359 z m 0,0.171995 c 0.775046,-1.04e-4 1.402063,0.627179 1.402226,1.402225 1.04e-4,0.775238 -0.626989,1.40034 -1.402226,1.400235 -0.775237,1.05e-4 -1.40233,-0.624997 -1.402226,-1.400235 1.63e-4,-0.775046 0.62718,-1.402329 1.402226,-1.402225 z"
         id="path197" />
    </g>
  </g>
</svg>
