<svg width="512" xmlns="http://www.w3.org/2000/svg" height="512" id="screenshot-47fe3fba-537f-803b-8006-ad37a7494710" viewBox="0 0 38 38" xmlns:xlink="http://www.w3.org/1999/xlink" fill="none" version="1.1"><g id="shape-47fe3fba-537f-803b-8006-ad37a7494710"><defs><clipPath id="frame-clip-47fe3fba-537f-803b-8006-ad37a7494710-render-1" class="frame-clip frame-clip-def"><rect rx="0" ry="0" x="0" y="0" width="38" height="38" transform="matrix(1.000000, 0.000000, 0.000000, 1.000000, 0.000000, 0.000000)"/></clipPath></defs><g class="frame-container-wrapper"><g class="frame-container-blur"><g class="frame-container-shadows"><g clip-path="url(#frame-clip-47fe3fba-537f-803b-8006-ad37a7494710-render-1)" fill="none"><g class="fills" id="fills-47fe3fba-537f-803b-8006-ad37a7494710"><rect rx="0" ry="0" x="0" y="0" width="38" height="38" transform="matrix(1.000000, 0.000000, 0.000000, 1.000000, 0.000000, 0.000000)" class="frame-background"/></g><g class="frame-children"><g id="shape-47fe3fba-537f-803b-8006-ad3a2e680e71"><defs><radialGradient id="fill-color-gradient-render-2-0" cx="0.7775293557948544" cy="-0.03956647893031828" r="2.1079178931103972" gradientTransform="matrix(-0.843025, -0.505887, 0.514549, -0.857461, 1.453365, 0.319849)"><stop offset="0" stop-color="#000000" stop-opacity="1"/><stop offset="0.34" stop-color="#922256" stop-opacity="1"/><stop offset="0.86" stop-color="#ffdbf3" stop-opacity="1"/></radialGradient><pattern patternUnits="userSpaceOnUse" x="3" y="3" width="32" height="32" patternTransform="matrix(1.000000, 0.000000, 0.000000, 1.000000, 0.000000, 0.000000)" id="fill-0-render-2"><g><rect width="32" height="32" style="fill: url(&quot;#fill-color-gradient-render-2-0&quot;); fill-opacity: 1;"/></g></pattern></defs><g class="fills" id="fills-47fe3fba-537f-803b-8006-ad3a2e680e71"><path d="M18.9998779296875,20.50006103515625L14.0001220703125,22.0001220703125L19.0001220703125,3L19.0001220703125,3L19.0001220703125,17.49993896484375L23.9998779296875,15.9998779296875L18.9998779296875,35L18.9998779296875,35L18.9998779296875,20.50006103515625M18.9998779296875,17.5L19.0001220703125,17.49993896484375M30.1197509765625,7.5C27.2401123046875,4.71478271484375,23.3187255859375,3.00006103515625,19.0001220703125,3C14.6812744140625,3,10.760009765625,4.71478271484375,7.8802490234375,7.5L10.5,7.5L10.5,30.5L7.8802490234375,30.5C10.7598876953125,33.28521728515625,14.6812744140625,34.99993896484375,18.9998779296875,35C23.3187255859375,35,27.239990234375,33.28521728515625,30.1197509765625,30.5L27.5,30.5L27.5,7.5L30.1197509765625,7.5M6.1279296875,28.5L8.5,28.5L8.5,9.5L6.1279296875,9.5C4.16259765625,12.15753173828125,3,15.444091796875,3,19C3,22.555908203125,4.16259765625,25.84246826171875,6.1279296875,28.5M31.8720703125,9.5L29.5,9.5L29.5,28.5L31.8720703125,28.5C33.83740234375,25.84246826171875,35,22.555908203125,35,19C35,15.444091796875,33.83740234375,12.15753173828125,31.8720703125,9.5M22.265380859375,3.33087158203125C21.2427978515625,3.12054443359375,20.184814453125,3.00701904296875,19.1015625,3.00030517578125C19.0677490234375,3.0001220703125,19.033935546875,3,19.0001220703125,3" fill="url(#fill-0-render-2)"/></g></g></g></g></g></g></g></g></svg>
